<svg xmlns="http://www.w3.org/2000/svg" viewBox="0 0 500 500"><path d="M0 0h62.5v62.5H0zm125 0h62.5v62.5H125zm125 0h62.5v62.5H250zm125 0h62.5v62.5H375zm62.5 62.5H500V125h-62.5zm-125 0H375V125h-62.5zm-125 0H250V125h-62.5zm-125 0H125V125H62.5z"/><path d="M62.5 0H125v62.5H62.5zm125 0H250v62.5h-62.5zm125 0H375v62.5h-62.5zm125 0H500v62.5h-62.5zM375 62.5h62.5V125H375zm-125 0h62.5V125H250zm-125 0h62.5V125H125zm-125 0h62.5V125H0z" style="fill:#fff"/><path d="M0 125h62.5v62.5H0zm125 0h62.5v62.5H125zm125 0h62.5v62.5H250zm125 0h62.5v62.5H375zm62.5 62.5H500V250h-62.5zm-125 0H375V250h-62.5zm-125 0H250V250h-62.5zm-125 0H125V250H62.5z"/><path d="M62.5 125H125v62.5H62.5zm125 0H250v62.5h-62.5zm125 0H375v62.5h-62.5zm125 0H500v62.5h-62.5zM375 187.5h62.5V250H375zm-125 0h62.5V250H250zm-125 0h62.5V250H125zm-125 0h62.5V250H0z" style="fill:#fff"/><path d="M0 250h62.5v62.5H0zm125 0h62.5v62.5H125zm125 0h62.5v62.5H250zm125 0h62.5v62.5H375zm62.5 62.5H500V375h-62.5zm-125 0H375V375h-62.5zm-125 0H250V375h-62.5zm-125 0H125V375H62.5z"/><path d="M62.5 250H125v62.5H62.5zm125 0H250v62.5h-62.5zm125 0H375v62.5h-62.5zm125 0H500v62.5h-62.5zM375 312.5h62.5V375H375zm-125 0h62.5V375H250zm-125 0h62.5V375H125zm-125 0h62.5V375H0z" style="fill:#fff"/><path d="M0 375h62.5v62.5H0zm125 0h62.5v62.5H125zm125 0h62.5v62.5H250zm125 0h62.5v62.5H375zm62.5 62.5H500V500h-62.5zm-125 0H375V500h-62.5zm-125 0H250V500h-62.5zm-125 0H125V500H62.5z"/><path d="M62.5 375H125v62.5H62.5zm125 0H250v62.5h-62.5zm125 0H375v62.5h-62.5zm125 0H500v62.5h-62.5zM375 437.5h62.5V500H375zm-125 0h62.5V500H250zm-125 0h62.5V500H125zm-125 0h62.5V500H0z" style="fill:#fff"/></svg>